# xmcd CD database file
# Copyright (C) 1997 Ti Kan
# 
# Track frame offsets:
#     150
#     11473
#     23978
#     38020
#     49330
#     60288
#     71928
#     84130
#     97705
#     107975
#     117320
#     131043
#     142008
#     154453
#     165748
#     174973
#     186148
#     195375
#     207163
#     218460
# 
# Disc length: 3047 seconds
# 
# Revision: 1
# Processed by: cddbd v1.4b41PL1 Copyright (c) Steve Scherf et al.
# Submitted via: DiscPlay 4.0.4
# 
DISCID=0d0be514
DTITLE=George Jones - Tender Years
DYEAR=1900
DGENRE=
TTITLE0=Least Of All
TTITLE1=She's Just A Girl I Used To Know
TTITLE2=It's Funny What A Fool Will Do
TTITLE3=You Comb Her Hair
TTITLE4=Tender Years
TTITLE5=White Lightning
TTITLE6=Take Me
TTITLE7=Things Have Gone To Pieces
TTITLE8=Walk Through This World With Me
TTITLE9=The Race Is On
TTITLE10=A Good Year For The Roses
TTITLE11=Say It's Not You
TTITLE12=If My Heart Had Windows
TTITLE13=I'll Share My World With You
TTITLE14=Old Brush Arbors
TTITLE15=Once A Day
TTITLE16=The World's Worst Loser
TTITLE17=Accidentally On Purpose
TTITLE18=I'm Wasting Good Paper
TTITLE19=Developing My Pictures
EXTD=
EXTT0=
EXTT1=
EXTT2=
EXTT3=
EXTT4=
EXTT5=
EXTT6=
EXTT7=
EXTT8=
EXTT9=
EXTT10=
EXTT11=
EXTT12=
EXTT13=
EXTT14=
EXTT15=
EXTT16=
EXTT17=
EXTT18=
EXTT19=
PLAYORDER=
